<svg id="Layer_1" data-name="Layer 1" xmlns="http://www.w3.org/2000/svg" viewBox="0 0 248.17 72.85">
  <defs>
    <style>
      .cls-1 {
        fill: #d1d2d6;
      }
    </style>
  </defs>
  <path class="cls-1" d="M37.7,54.77,5.08,41.22V35.66L37.7,22.11v7L14.86,38.47l22.84,9.3Z"/>
  <path class="cls-1" d="M64.53,55.31A22.54,22.54,0,0,1,57,54.11a15.48,15.48,0,0,1-9.71-9.47A22.66,22.66,0,0,1,46,36.46a22.33,22.33,0,0,1,1.3-7.83,16.65,16.65,0,0,1,3.76-6,15.85,15.85,0,0,1,5.87-3.73,21.49,21.49,0,0,1,7.65-1.32,30.39,30.39,0,0,1,4.14.26,28.22,28.22,0,0,1,3.41.67,23.13,23.13,0,0,1,3,1c.89.38,1.67.73,2.33,1.06v8.81H76.32c-.46-.39-1-.85-1.72-1.38a22,22,0,0,0-2.36-1.58,15.61,15.61,0,0,0-2.9-1.31A10.23,10.23,0,0,0,66,24.57a11.45,11.45,0,0,0-3.76.62,9.09,9.09,0,0,0-3.29,2.06,10.22,10.22,0,0,0-2.34,3.68,15.47,15.47,0,0,0-.89,5.56,14.62,14.62,0,0,0,1,5.7,9.74,9.74,0,0,0,2.43,3.6,8.91,8.91,0,0,0,3.32,1.92,12.08,12.08,0,0,0,3.61.57,11.5,11.5,0,0,0,3.38-.51,12.73,12.73,0,0,0,3.09-1.39,20.48,20.48,0,0,0,2.22-1.5c.69-.54,1.25-1,1.69-1.39h1v8.69l-2.61,1.15a21.16,21.16,0,0,1-2.61.93,31.76,31.76,0,0,1-3.35.78A26.5,26.5,0,0,1,64.53,55.31Z"/>
  <path class="cls-1" d="M122.39,54.6h-9.33V30.26l-6.74,15.8H99.85l-6.73-15.8V54.6H84.28V18.25H95.17l8.18,18.24,8.15-18.24h10.89Z"/>
  <path class="cls-1" d="M166,36.46a17.93,17.93,0,0,1-2.32,9.1,17,17,0,0,1-5.86,6.16A18,18,0,0,1,152,54a39.05,39.05,0,0,1-7.52.63H131.67V18.25h13.18a34.91,34.91,0,0,1,7.67.74,17.83,17.83,0,0,1,5.42,2.12,16.52,16.52,0,0,1,5.92,6.19A18.57,18.57,0,0,1,166,36.46Zm-9.7-.07a13.35,13.35,0,0,0-1.3-6.14,9.11,9.11,0,0,0-4.14-4,10.8,10.8,0,0,0-2.94-1,29.57,29.57,0,0,0-4.53-.25H141V47.79h2.37a27.58,27.58,0,0,0,4.91-.31,10.6,10.6,0,0,0,3.05-1.11,9,9,0,0,0,3.76-3.91A13.91,13.91,0,0,0,156.32,36.39Z"/>
  <path class="cls-1" d="M189.6,55.31a22.48,22.48,0,0,1-7.48-1.2,15.82,15.82,0,0,1-5.9-3.56,16,16,0,0,1-3.82-5.91,22.88,22.88,0,0,1-1.35-8.18,22.56,22.56,0,0,1,1.29-7.83,16.79,16.79,0,0,1,3.76-6A15.93,15.93,0,0,1,182,18.86a21.56,21.56,0,0,1,7.65-1.32,30.39,30.39,0,0,1,4.14.26,27.84,27.84,0,0,1,3.41.67,22.6,22.6,0,0,1,3,1c.89.38,1.67.73,2.34,1.06v8.81h-1.08c-.45-.39-1-.85-1.72-1.38a22.83,22.83,0,0,0-2.35-1.58,16,16,0,0,0-2.91-1.31,10.17,10.17,0,0,0-3.34-.54,11.41,11.41,0,0,0-3.76.62,9.21,9.21,0,0,0-3.3,2.06,10.07,10.07,0,0,0-2.33,3.68,15.25,15.25,0,0,0-.89,5.56,14.82,14.82,0,0,0,1,5.7,9.74,9.74,0,0,0,2.43,3.6,8.91,8.91,0,0,0,3.32,1.92,12.13,12.13,0,0,0,3.61.57,11.61,11.61,0,0,0,3.39-.51,12.84,12.84,0,0,0,3.08-1.39,21.67,21.67,0,0,0,2.23-1.5c.68-.54,1.24-1,1.68-1.39h1v8.69l-2.62,1.15a21.16,21.16,0,0,1-2.61.93,32.19,32.19,0,0,1-3.34.78A26.64,26.64,0,0,1,189.6,55.31Z"/>
  <path class="cls-1" d="M243.09,41.22,210.47,54.77v-7l22.84-9.33-22.84-9.33v-7l32.62,13.55Z"/>
</svg>
